<svg xmlns="http://www.w3.org/2000/svg" width="121.08" height="121.08" viewBox="0 0 121.08 121.08">
  <defs>
    <style>
      .cls-1 {
        isolation: isolate;
      }

      .cls-2, .cls-5 {
        fill: #fff;
      }

      .cls-2 {
        stroke: #008481;
        stroke-linejoin: round;
        stroke-width: 4px;
      }

      .cls-2, .cls-4 {
        stroke-linecap: round;
      }

      .cls-3 {
        fill: #18bebd;
      }

      .cls-3, .cls-9 {
        opacity: 0.2;
        mix-blend-mode: multiply;
      }

      .cls-4, .cls-7 {
        fill: none;
        stroke-miterlimit: 10;
      }

      .cls-4 {
        stroke: #18bebd;
        stroke-width: 1.31px;
      }

      .cls-6 {
        fill: #008481;
      }

      .cls-7 {
        stroke: #57b520;
        stroke-width: 2px;
        opacity: 0.4;
      }

      .cls-8 {
        fill: #57b520;
      }

      .cls-9 {
        fill: #00c1bf;
      }
    </style>
  </defs>
  <title>il_utl</title>
  <g class="cls-1">
    <g id="art">
      <g>
        <g>
          <path class="cls-2" d="M84,59.25c-1.09-.64-2.27-1.12-3.3-1.84a4.7,4.7,0,0,1-2.13-3c-.39-2.55.93-4.32,1.75-6.63.26-.73.48-1.48.67-2.24a5.79,5.79,0,0,0,1.15-9.73v-.69c0-3.39.06-8.14-2.2-10.9a12.56,12.56,0,0,0-10.18-4.49,12.56,12.56,0,0,0-10.19,4.49c-2.26,2.76-2.17,7.51-2.2,10.9v.69a5.79,5.79,0,0,0,1.15,9.73c.19.76.41,1.51.67,2.24.82,2.31,2.14,4.08,1.75,6.63a4.7,4.7,0,0,1-2.13,3c-1,.72-2.21,1.2-3.3,1.84A13.48,13.48,0,0,0,48.9,71a2.54,2.54,0,0,0,.23,1.16,2.69,2.69,0,0,0,.76.78,32.56,32.56,0,0,0,39.65,0,2.69,2.69,0,0,0,.76-.78A2.54,2.54,0,0,0,90.53,71,13.48,13.48,0,0,0,84,59.25Z"/>
          <path class="cls-3" d="M80.32,63.86a15.58,15.58,0,0,1-6.75,12.83A30,30,0,0,0,88,70.77a12.78,12.78,0,0,0-2.09-6.5A11.43,11.43,0,0,0,81.62,61c-.59-.32-1.19-.66-1.8-1A15.43,15.43,0,0,1,80.32,63.86Z"/>
          <path class="cls-4" d="M76.05,58.46a9,9,0,0,1-12.67,0"/>
        </g>
        <g>
          <path class="cls-2" d="M46.6,81c-1.09-.63-2.27-1.11-3.3-1.83a4.74,4.74,0,0,1-2.13-3c-.39-2.55.93-4.31,1.75-6.62.26-.73.48-1.48.67-2.24a5.79,5.79,0,0,0,1.15-9.73v-.7c0-3.39.06-8.14-2.2-10.9a12.59,12.59,0,0,0-10.18-4.49A12.61,12.61,0,0,0,22.17,46C19.91,48.72,20,53.47,20,56.86v.7a5.79,5.79,0,0,0,1.15,9.73c.19.76.41,1.51.67,2.24.82,2.31,2.14,4.07,1.75,6.62a4.74,4.74,0,0,1-2.13,3c-1,.72-2.21,1.2-3.3,1.83a13.54,13.54,0,0,0-6.57,11.71,2.5,2.5,0,0,0,.23,1.15,2.72,2.72,0,0,0,.76.79,33.16,33.16,0,0,0,19.83,6.72,33.16,33.16,0,0,0,19.82-6.72,2.72,2.72,0,0,0,.76-.79,2.5,2.5,0,0,0,.23-1.15A13.5,13.5,0,0,0,46.6,81Z"/>
          <path class="cls-3" d="M43,85.59a15.6,15.6,0,0,1-6.75,12.83,30.08,30.08,0,0,0,14.38-5.93A12.85,12.85,0,0,0,48.5,86a11.33,11.33,0,0,0-4.24-3.28c-.58-.33-1.18-.67-1.8-1A15.31,15.31,0,0,1,43,85.59Z"/>
          <path class="cls-4" d="M38.69,80.18a9,9,0,0,1-12.67,0"/>
        </g>
        <g>
          <g>
            <rect class="cls-5" x="63.19" y="74.09" width="46.34" height="28.69" rx="2"/>
            <path class="cls-6" d="M107.54,76.09v24.69H65.19V76.09h42.35m0-4H65.19a4,4,0,0,0-4,4v24.69a4,4,0,0,0,4,4h42.35a4,4,0,0,0,4-4V76.09a4,4,0,0,0-4-4Z"/>
          </g>
          <rect class="cls-7" x="69.19" y="79.4" width="34.26" height="17.93"/>
          <path class="cls-5" d="M86.65,100.54c-5.54,0-10.05-5.4-10.05-12.05s4.51-12,10.05-12,10,5.41,10,12S92.19,100.54,86.65,100.54Z"/>
          <path class="cls-8" d="M86.65,78.44c-4.45,0-8.05,4.5-8.05,10s3.6,10.05,8.05,10.05,8-4.5,8-10.05S91.1,78.44,86.65,78.44Zm4.57,13a5.35,5.35,0,0,0-1.6-.32,3.73,3.73,0,0,1-1.35-.38A4.22,4.22,0,0,0,90.52,87a3.88,3.88,0,1,0-7.74,0A4.2,4.2,0,0,0,85,90.77a3.73,3.73,0,0,1-1.36.38,5.48,5.48,0,0,0-1.6.32,1.87,1.87,0,0,0-1,.89,10.26,10.26,0,0,1-.73-3.87c0-4.57,2.81-8.28,6.28-8.28s6.28,3.71,6.28,8.28a10.26,10.26,0,0,1-.73,3.87A1.86,1.86,0,0,0,91.22,91.47Z"/>
          <polygon class="cls-9" points="105.44 78.16 105.44 98.7 86.6 98.7 105.44 78.16"/>
        </g>
      </g>
    </g>
  </g>
</svg>
