<svg xmlns="http://www.w3.org/2000/svg" viewBox="0 0 121.08 121.08"><defs><style>.cls-1{isolation:isolate;}.cls-2,.cls-8{fill:#fff;}.cls-3{fill:#008481;}.cls-4,.cls-9{fill:#00c1bf;}.cls-4{opacity:0.15;mix-blend-mode:multiply;}.cls-5{fill:#57b520;}.cls-6,.cls-7{fill:none;}.cls-6{stroke:#00c1bf;stroke-width:1.61px;}.cls-6,.cls-7,.cls-8{stroke-linecap:round;stroke-linejoin:round;}.cls-7,.cls-8{stroke:#008481;}.cls-7{stroke-width:1.63px;}.cls-8{stroke-width:4px;}</style></defs><g class="cls-1"><g id="final_art" data-name="final art"><path class="cls-2" d="M22.09,84a2,2,0,0,1-2-2V28.19a2,2,0,0,1,2-2H35.18a8.45,8.45,0,0,1,16.48,0H64.75a2,2,0,0,1,2,2V82a2,2,0,0,1-2,2Z"/><path class="cls-3" d="M43.42,21.6a6.53,6.53,0,0,1,6.47,6.59H64.75V82H22.09V28.19H37a6.53,6.53,0,0,1,6.47-6.59m0-4a10.5,10.5,0,0,0-9.7,6.59H22.09a4,4,0,0,0-4,4V82a4,4,0,0,0,4,4H64.75a4,4,0,0,0,4-4V28.19a4,4,0,0,0-4-4H53.11a10.49,10.49,0,0,0-9.69-6.59Z"/><polygon class="cls-4" points="63.91 40.09 63.91 80.46 22.93 80.46 63.91 40.09"/><ellipse class="cls-5" cx="30.95" cy="46.16" rx="2.84" ry="2.81"/><line class="cls-6" x1="39.06" y1="46.16" x2="56.35" y2="46.16"/><ellipse class="cls-5" cx="30.95" cy="58.18" rx="2.84" ry="2.81"/><line class="cls-6" x1="39.06" y1="58.18" x2="56.35" y2="58.18"/><ellipse class="cls-5" cx="30.95" cy="70.19" rx="2.84" ry="2.81"/><line class="cls-6" x1="39.06" y1="70.19" x2="56.35" y2="70.19"/><ellipse class="cls-3" cx="43.42" cy="28.19" rx="2.87" ry="2.84"/><polyline class="cls-7" points="28.21 26.9 28.21 35.13 58.62 35.13 58.62 26.9"/><rect class="cls-8" x="53.36" y="52.99" width="47.63" height="47.63"/><rect class="cls-9" x="70.57" y="54.42" width="13.23" height="11.15"/><rect class="cls-3" x="68.55" y="71.01" width="17.27" height="4.65" rx="1.59"/><polygon class="cls-4" points="69.74 97.86 98.17 97.86 98.17 69.42 69.74 97.86"/></g></g></svg>