<svg xmlns="http://www.w3.org/2000/svg" width="121.08" height="121.08" viewBox="0 0 121.08 121.08">
  <defs>
    <style>
      .cls-1 {
        isolation: isolate;
      }

      .cls-2 {
        fill: #fff;
      }

      .cls-3 {
        fill: #008481;
      }

      .cls-4 {
        fill: #57b520;
      }

      .cls-5 {
        fill: #00c1bf;
        opacity: 0.2;
        mix-blend-mode: multiply;
      }

      .cls-6 {
        fill: none;
        stroke: #00c1bf;
        stroke-linecap: round;
        stroke-linejoin: round;
        stroke-width: 2px;
      }
    </style>
  </defs>
  <g class="cls-1">
    <g id="art">
      <g>
        <g>
          <path class="cls-2" d="M39.33,100.45a2,2,0,0,1-2-2.26l10-75a2,2,0,0,1,2-1.73H95.55a2,2,0,0,1,1.53.7L108.3,35.41a2,2,0,0,1,.45,1.59l-9,61.74a2,2,0,0,1-2,1.71Z"/>
          <path class="cls-3" d="M95.55,23.49l11.22,13.22-9,61.74H39.33l10-75H95.55m0-4H49.34a4,4,0,0,0-4,3.47l-10,75a4,4,0,0,0,4,4.52H97.76a4,4,0,0,0,4-3.42l9-61.74a4,4,0,0,0-.91-3.17L98.6,20.9a4,4,0,0,0-3-1.41Z"/>
        </g>
        <g>
          <path class="cls-3" d="M95.14,37.37a2.4,2.4,0,0,1-2.4-2.4l2-11.32a1.58,1.58,0,0,1,1.6-1.52,1.62,1.62,0,0,1,1.13.47l10,12.06a1.6,1.6,0,0,1-1.16,2.71Z"/>
          <path class="cls-3" d="M96.35,22.63a1.09,1.09,0,0,1,.78.33l10,12a1.11,1.11,0,0,1-.78,1.89H95.14a1.9,1.9,0,0,1-1.9-1.9l2-11.23a1.1,1.1,0,0,1,1.11-1.11m0-1a2.11,2.11,0,0,0-2.11,2l-2,11.15V35a2.9,2.9,0,0,0,2.9,2.9h11.23a2.11,2.11,0,0,0,1.52-3.56l-10-12,0,0,0,0a2.07,2.07,0,0,0-1.48-.62Z"/>
        </g>
        <circle class="cls-4" cx="62.89" cy="39.51" r="5"/>
        <polygon class="cls-5" points="103.85 40.15 41.23 96.66 95.87 96.66 103.85 40.15"/>
        <g>
          <polygon class="cls-6" points="54.01 64.49 55.31 54.51 94 54.35 92.4 64.49 54.01 64.49"/>
          <line class="cls-6" x1="72.72" y1="74.07" x2="91.18" y2="74.07"/>
          <line class="cls-6" x1="75.97" y1="64.41" x2="77.27" y2="54.43"/>
        </g>
        <line class="cls-6" x1="13.61" y1="41" x2="36.33" y2="41"/>
        <line class="cls-6" x1="13.61" y1="48.11" x2="35.4" y2="48.11"/>
        <line class="cls-6" x1="13.61" y1="55.21" x2="34.48" y2="55.21"/>
      </g>
    </g>
  </g>
</svg>
