<svg xmlns="http://www.w3.org/2000/svg" width="121.08" height="121.08" viewBox="0 0 121.08 121.08">
  <defs>
    <style>
      .cls-1 {
        isolation: isolate;
      }

      .cls-2, .cls-6 {
        fill: #fff;
      }

      .cls-3 {
        fill: #008380;
      }

      .cls-4, .cls-7, .cls-8, .cls-9 {
        fill: none;
      }

      .cls-4 {
        stroke: #20bbbb;
      }

      .cls-4, .cls-6, .cls-7, .cls-8, .cls-9 {
        stroke-linecap: round;
      }

      .cls-4, .cls-8 {
        stroke-miterlimit: 10;
        stroke-width: 2px;
      }

      .cls-5 {
        fill: #20bbbb;
        opacity: 0.15;
        mix-blend-mode: multiply;
      }

      .cls-6, .cls-7 {
        stroke: #008380;
      }

      .cls-6, .cls-7, .cls-9 {
        stroke-linejoin: round;
        stroke-width: 6px;
      }

      .cls-8, .cls-9 {
        stroke: #56b447;
      }
    </style>
  </defs>
  <g class="cls-1">
    <g id="art">
      <g>
        <g>
          <g>
            <path class="cls-2" d="M93.23,87.19a2,2,0,0,1-1-.26l-6.51-3.7-6.51,3.7a2,2,0,0,1-2,0l-6.51-3.7-6.51,3.7a2,2,0,0,1-2,0l-6.52-3.7-6.51,3.7a1.93,1.93,0,0,1-1,.26,2,2,0,0,1-2-2v-68a2,2,0,0,1,2-2h45a2,2,0,0,1,2,2v68a2,2,0,0,1-2,2Z"/>
            <path class="cls-3" d="M93.23,17.2v68l-7.5-4.26-7.5,4.26-7.5-4.26-7.5,4.26-7.5-4.26-7.5,4.26v-68h45m0-4h-45a4,4,0,0,0-4,4v68a4,4,0,0,0,6,3.48l5.52-3.14,5.53,3.14a4,4,0,0,0,3.95,0l5.52-3.14,5.53,3.14a4,4,0,0,0,3.95,0l5.52-3.14,5.52,3.14a4,4,0,0,0,6-3.48v-68a4,4,0,0,0-4-4Z"/>
          </g>
          <g>
            <line class="cls-4" x1="57.17" y1="33.48" x2="84.49" y2="33.48"/>
            <line class="cls-4" x1="63.32" y1="61.93" x2="84.49" y2="61.93"/>
          </g>
          <polygon class="cls-5" points="55.73 78.63 63.23 82.89 70.73 78.63 78.23 82.89 85.73 78.63 91.23 81.76 91.23 43.14 55.73 78.63"/>
        </g>
        <g>
          <line class="cls-6" x1="86.93" y1="47.19" x2="118.03" y2="47.19"/>
          <polyline class="cls-7" points="103.73 32.89 118.03 47.19 103.73 61.5"/>
        </g>
        <g>
          <g>
            <path class="cls-2" d="M28.22,105.88a2,2,0,0,1-2-2v-69a2,2,0,0,1,2-2h45a2,2,0,0,1,2,2v69a2,2,0,0,1-1,1.73,2,2,0,0,1-1,.27,1.89,1.89,0,0,1-1-.26l-6.51-3.69-6.52,3.69a1.89,1.89,0,0,1-1,.26,2,2,0,0,1-1-.26l-6.51-3.69-6.51,3.69a2,2,0,0,1-2,0l-6.51-3.7-6.51,3.7A2,2,0,0,1,28.22,105.88Z"/>
            <path class="cls-3" d="M73.21,34.89v69l-7.49-4.26-7.5,4.26-7.5-4.26-7.5,4.26-7.5-4.26-7.5,4.26v-69h45m0-4h-45a4,4,0,0,0-4,4v69a4,4,0,0,0,6,3.48l5.53-3.14,5.52,3.14a4,4,0,0,0,4,0l5.52-3.14,5.52,3.14a4,4,0,0,0,3.95,0l5.53-3.14,5.52,3.14a4,4,0,0,0,2,.52,4.05,4.05,0,0,0,2-.54,4,4,0,0,0,2-3.46v-69a4,4,0,0,0-4-4Z"/>
          </g>
          <g>
            <line class="cls-8" x1="43.31" y1="65.88" x2="64.47" y2="65.88"/>
            <line class="cls-8" x1="37.16" y1="52.17" x2="64.47" y2="52.17"/>
            <line class="cls-8" x1="43.31" y1="80.62" x2="64.47" y2="80.62"/>
          </g>
          <polygon class="cls-5" points="35.72 97.33 43.22 101.58 50.72 97.33 58.22 101.58 65.72 97.33 71.21 100.45 71.21 61.83 35.72 97.33"/>
        </g>
        <g>
          <line class="cls-9" x1="34.52" y1="65.88" x2="3.05" y2="65.88"/>
          <polyline class="cls-9" points="17.36 80.19 3.05 65.88 17.36 51.58"/>
        </g>
      </g>
    </g>
  </g>
</svg>
