<svg xmlns="http://www.w3.org/2000/svg" width="122" height="122" fill="none" viewBox="0 0 122 122">
  <path fill="#fff" d="M95.89 20.54h-44a2 2 0 00-2 2v76a2 2 0 002 2h44a2 2 0 002-2v-76a2 2 0 00-2-2z"/>
  <path fill="#008481" d="M95.89 22.54v76h-44v-76h44zm0-4h-44a4 4 0 00-4 4v76a3.998 3.998 0 004 4h44a3.997 3.997 0 004-4v-76a4 4 0 00-4-4z"/>
  <path fill="#00C1BF" d="M93.46 29.14v50.13h-38.4l38.4-50.13z" opacity=".15"/>
  <path stroke="#00C1BF" stroke-linecap="round" stroke-miterlimit="10" stroke-width="2" d="M55.06 82.48l37.65-.01M70.1 25.78l7.57-.02"/>
  <path fill="#57B520" d="M73.89 95.32a4.28 4.28 0 100-8.56 4.28 4.28 0 000 8.56z"/>
  <path fill="#57B520" d="M62.64 43.58v25.27a1 1 0 001.49.87l1.76-1a1 1 0 011 0l2.77 1.57a1 1 0 001 0l2.77-1.57a1 1 0 011 0l2.77 1.57a1 1 0 001 0l2.76-1.57a1 1 0 011 0l1.76 1a1 1 0 001.5-.87V43.58a1 1 0 00-1-1H63.64a1 1 0 00-1 1z" opacity=".6"/>
  <g>
    <path fill="#fff" stroke="#008481" stroke-linecap="round" stroke-linejoin="round" stroke-width="4" d="M57.2 49.66v40.01l-4-2.25-4 2.25-4-2.25-4 2.25-4-2.25-4 2.25-4-2.25-4 2.25V49.66h32z"/>
    <path fill="#00C1BF" d="M31.88 82.36l3.1 1.74 3.11-1.74 3.11 1.74 3.1-1.74 3.11 1.74 3.11-1.74 2.28 1.27V60.74L29.6 83.63l2.28-1.27z" opacity=".15"/>
  </g>
  <g>
    <path stroke="#57B520" stroke-linecap="round" stroke-miterlimit="10" stroke-width="2" d="M32.1 69.4h18.3"/>
    <path stroke="#00C1BF" stroke-linecap="round" stroke-miterlimit="10" stroke-width="2" d="M32.1 62.18h18.3M41.25 77.15h9.15"/>
  </g>
</svg>
