<svg xmlns="http://www.w3.org/2000/svg" width="122" height="122" fill="none" viewBox="0 0 122 122">
  <path fill="#fff" d="M30.54 99.51a2 2 0 01-2-2v-76a2 2 0 012-2h46.81a2 2 0 011.41.59L92 33.29a2 2 0 01.59 1.41v62.82a2 2 0 01-2 2l-60.05-.01z"/>
  <path fill="#008481" d="M77.35 21.52L90.54 34.7v62.82h-60v-76h46.81zm0-4H30.54a4 4 0 00-4 4v76a3.998 3.998 0 004 4h60a3.997 3.997 0 004-4V34.7a4 4 0 00-1.17-2.82L80.17 18.7a4 4 0 00-2.82-1.17v-.01z"/>
  <path fill="#00C1BF" d="M88.54 39.65v55.87H32.68l55.86-55.87z" opacity=".15"/>
  <path fill="#008481" d="M79 35.28a2.41 2.41 0 01-2.4-2.4V21.65A1.61 1.61 0 0178.18 20a1.59 1.59 0 011.13.47l12 12a1.61 1.61 0 01-1.14 2.74L79 35.28z"/>
  <path fill="#008481" d="M78.18 20.54a1.082 1.082 0 01.78.33l12 12a1.1 1.1 0 01-.78 1.89H79a1.9 1.9 0 01-1.9-1.9V21.65a1.11 1.11 0 011.11-1.11h-.03zm.03-1a2.12 2.12 0 00-2.11 2.11v11.23a2.9 2.9 0 002.9 2.9h11.2a2.1 2.1 0 001.49-3.59l-12-12a2.1 2.1 0 00-1.49-.62l.01-.03z"/>
  <g>
    <path stroke="#00C1BF" stroke-linecap="round" stroke-linejoin="round" stroke-width="2" d="M36.64 62.4h46.49M64.68 71.98h18.45M36.64 52.42H83.13M64.68 62.4v-9.97M83.13 62.4v-9.97M36.64 62.4v-9.97"/>
  </g>
  <g>
    <path fill="#57B520" d="M43.21 41.89h-2.74l-4.29-11.33h3.08l2.62 8H42l2.61-8h3l-4.4 11.33zM55.72 41.89l-.88-2.22h-4.39l-.83 2.22h-3l4.78-11.33h2.65l4.71 11.33h-3.04zm-3-8.31l-1.44 3.89h2.85l-1.41-3.89zM63.6 32.9v9h-2.74v-9h-3.2v-2.34h9.14v2.34h-3.2z"/>
  </g>
</svg>
